<?xml version="1.0" standalone="no"?>
<!DOCTYPE svg PUBLIC "-//W3C//DTD SVG 20010904//EN"
 "http://www.w3.org/TR/2001/REC-SVG-20010904/DTD/svg10.dtd">
<svg version="1.0" xmlns="http://www.w3.org/2000/svg"
 width="360.000000pt" height="360.000000pt" viewBox="0 0 360.000000 360.000000"
 preserveAspectRatio="xMidYMid meet">
<metadata>
Created by potrace 1.14, written by Peter Selinger 2001-2017
</metadata>
<g transform="translate(0.000000,360.000000) scale(0.100000,-0.100000)"
fill="#000000" stroke="none">
<path d="M2091 3559 c-2 -58 -51 -127 -168 -236 -135 -126 -214 -227 -280
-359 l-47 -95 -18 35 c-10 20 -45 64 -78 98 -70 74 -71 74 -96 -57 -13 -65
-18 -139 -18 -268 0 -115 -4 -167 -9 -145 -62 253 -284 519 -563 676 l-71 39
5 -68 c6 -81 -7 -155 -53 -304 -64 -207 -76 -317 -51 -463 9 -50 16 -94 16
-96 0 -1 -24 1 -52 5 -65 10 -128 2 -128 -18 0 -22 44 -103 87 -160 75 -100
253 -274 383 -375 l35 -27 -85 -1 c-47 0 -110 -3 -140 -6 -75 -8 -303 -53
-312 -62 -11 -11 169 -122 338 -209 377 -195 621 -259 765 -199 14 6 13 -7 -8
-96 -66 -293 -72 -656 -17 -1030 9 -59 21 -112 28 -117 22 -17 52 -21 70 -8
18 13 18 17 -2 98 -43 176 -56 302 -56 539 0 162 5 255 17 333 18 116 54 287
61 295 3 2 52 -8 110 -22 372 -93 695 -69 974 75 53 27 126 73 161 101 l64 51
-24 20 c-46 38 -148 79 -210 84 l-61 6 55 22 c64 27 177 99 227 147 43 40 110
119 110 129 0 3 -34 10 -75 14 -41 4 -75 9 -75 11 0 3 13 16 29 30 34 28 151
181 205 266 l36 56 -66 7 c-42 5 -64 11 -60 19 43 101 58 149 71 222 16 95 20
231 6 253 -11 18 -142 -50 -418 -215 -113 -68 -208 -124 -210 -124 -2 0 -3 30
-3 66 0 47 -3 65 -12 62 -21 -7 -114 -135 -199 -273 -88 -141 -92 -137 -38 30
34 104 138 321 199 414 22 35 40 65 38 66 -2 2 -37 -3 -78 -10 -129 -24 -119
-31 -119 88 -1 148 -33 304 -107 508 -50 141 -83 211 -83 178z"/>
</g>
</svg>
